<svg width="18" height="16" viewBox="0 0 18 16" fill="none" xmlns="http://www.w3.org/2000/svg">
<path d="M10.3382 0H17.0441C17.5072 0 17.8824 0.383571 17.8824 0.857143V6.57143C17.8824 7.045 17.5072 7.42857 17.0441 7.42857H10.3382C9.87511 7.42857 9.5 7.045 9.5 6.57143V0.857143C9.5 0.383571 9.87511 0 10.3382 0ZM7.54412 0H0.838235C0.37511 0 0 0.383571 0 0.857143V6.57143C0 7.045 0.37511 7.42857 0.838235 7.42857H7.54412C8.00724 7.42857 8.38235 7.045 8.38235 6.57143V0.857143C8.38235 0.383571 8.00724 0 7.54412 0ZM0 9.42857V15.1429C0 15.6164 0.37511 16 0.838235 16H7.54412C8.00724 16 8.38235 15.6164 8.38235 15.1429V9.42857C8.38235 8.955 8.00724 8.57143 7.54412 8.57143H0.838235C0.37511 8.57143 0 8.955 0 9.42857ZM10.3382 16H17.0441C17.5072 16 17.8824 15.6164 17.8824 15.1429V9.42857C17.8824 8.955 17.5072 8.57143 17.0441 8.57143H10.3382C9.87511 8.57143 9.5 8.955 9.5 9.42857V15.1429C9.5 15.6164 9.87511 16 10.3382 16Z" fill="#767676"/>
</svg>
