<svg width="20" height="15" viewBox="0 0 20 15" fill="none" xmlns="http://www.w3.org/2000/svg">
<path d="M17.7764 0H1.83894C0.82331 0 0 0.839453 0 1.875V13.125C0 14.1605 0.82331 15 1.83894 15H17.7764C18.7921 15 19.6154 14.1605 19.6154 13.125V1.875C19.6154 0.839453 18.7921 0 17.7764 0ZM17.7764 1.875V3.46875C16.9175 4.18203 15.5479 5.29102 12.6201 7.62852C11.975 8.14609 10.6969 9.38906 9.80769 9.37461C8.91849 9.38945 7.64004 8.1457 6.99526 7.62852C4.06789 5.29141 2.69826 4.18242 1.83894 3.46875V1.875H17.7764ZM1.83894 13.125V5.875C2.71665 6.58789 3.96177 7.58828 5.85933 9.10352C6.69682 9.77539 8.16299 11.2594 9.80769 11.2504C11.4444 11.2594 12.8921 9.79727 13.7557 9.10391C15.6532 7.58906 16.8983 6.58828 17.7764 5.87539V13.125H1.83894Z" fill="#8F8F8F"/>
</svg>
