<svg width="21" height="19" viewBox="0 0 21 19" fill="none" xmlns="http://www.w3.org/2000/svg">
<path d="M18.8016 1.36957C16.4309 -0.691034 12.7682 -0.381519 10.5 2.00556C8.23184 -0.381519 4.56915 -0.695275 2.19844 1.36957C-0.885933 4.05345 -0.434761 8.42906 1.76368 10.7483L8.95782 18.3251C9.36797 18.7575 9.91758 18.9992 10.5 18.9992C11.0865 18.9992 11.632 18.7618 12.0422 18.3293L19.2363 10.7525C21.4307 8.4333 21.89 4.05769 18.8016 1.36957ZM17.8336 9.31945L10.6395 16.8962C10.541 16.998 10.459 16.998 10.3606 16.8962L3.16641 9.31945C1.66934 7.74219 1.36583 4.75728 3.46583 2.92987C5.06133 1.54341 7.52227 1.75117 9.06446 3.37506L10.5 4.88872L11.9356 3.37506C13.4859 1.74269 15.9469 1.54341 17.5342 2.92563C19.6301 4.75304 19.3184 7.75491 17.8336 9.31945Z" fill="#767676"/>
</svg>
