<svg width="11" height="13" viewBox="0 0 11 13" fill="none" xmlns="http://www.w3.org/2000/svg">
<path d="M7.94455 1.3C7.43384 1.79004 6.97272 2.30521 6.56415 2.82268C5.89482 1.86926 5.06491 0.902129 4.125 0C1.71237 2.31486 0 5.33102 0 7.15C0 10.381 2.46248 13 5.5 13C8.53752 13 11 10.381 11 7.15C11 5.79744 9.72371 3.00777 7.94455 1.3ZM7.4665 9.94932C6.93466 10.3342 6.27884 10.5625 5.57022 10.5625C3.79868 10.5625 2.35714 9.35035 2.35714 7.38232C2.35714 6.40199 2.95404 5.5382 4.1444 4.0625C4.31455 4.26512 6.57103 7.24496 6.57103 7.24496L8.0106 5.54684C8.11225 5.72076 8.20482 5.89088 8.28732 6.05389C8.95886 7.37902 8.67551 9.07461 7.4665 9.94932Z" fill="#FFAA46"/>
</svg>
