<svg width="13" height="15" viewBox="0 0 13 15" fill="none" xmlns="http://www.w3.org/2000/svg">
<path d="M9.38902 1.50012C8.78545 2.06555 8.24049 2.65999 7.75763 3.25706C6.96661 2.15696 5.9858 1.04104 4.875 0.00012207C2.02371 2.67112 0 6.15129 0 8.25012C0 11.9781 2.9102 15.0001 6.5 15.0001C10.0898 15.0001 13 11.9781 13 8.25012C13 6.68948 11.4917 3.47063 9.38902 1.50012ZM8.82404 11.4801C8.19551 11.9242 7.42045 12.1876 6.58299 12.1876C4.48935 12.1876 2.78571 10.789 2.78571 8.51819C2.78571 7.38704 3.49114 6.39036 4.89792 4.68762C5.09902 4.92141 7.76576 8.35969 7.76576 8.35969L9.46708 6.40032C9.58721 6.601 9.69661 6.79729 9.79411 6.98538C10.5877 8.51438 10.2529 10.4708 8.82404 11.4801Z" fill="#767676"/>
</svg>
