<svg width="18" height="18" viewBox="0 0 18 18" fill="none" xmlns="http://www.w3.org/2000/svg">
<path d="M18 9C18 13.9718 13.9703 18 9 18C4.02968 18 0 13.9718 0 9C0 4.03113 4.02968 0 9 0C13.9703 0 18 4.03113 18 9ZM9.24133 2.97581C7.26351 2.97581 6.00206 3.80903 5.01169 5.28968C4.88323 5.48165 4.92641 5.74004 5.11004 5.87976L6.36931 6.83456C6.55839 6.9779 6.8273 6.94379 6.97427 6.75762C7.62242 5.93528 8.06698 5.45843 9.05371 5.45843C9.79512 5.45843 10.7122 5.93564 10.7122 6.65456C10.7122 7.19818 10.2636 7.47726 9.53165 7.8877C8.6781 8.36601 7.54839 8.96153 7.54839 10.4516V10.5968C7.54839 10.8374 7.74327 11.0323 7.98387 11.0323H10.0161C10.2567 11.0323 10.4516 10.8374 10.4516 10.5968V10.5485C10.4516 9.51569 13.4706 9.4725 13.4706 6.67742C13.4706 4.57258 11.287 2.97581 9.24133 2.97581ZM9 11.9758C8.07931 11.9758 7.33065 12.7248 7.33065 13.6452C7.33065 14.5655 8.07931 15.3145 9 15.3145C9.92068 15.3145 10.6694 14.5655 10.6694 13.6452C10.6694 12.7248 9.92032 11.9758 9 11.9758Z" fill="#767676"/>
</svg>
