<svg width="22" height="17" viewBox="0 0 22 17" fill="none" xmlns="http://www.w3.org/2000/svg">
<path d="M16.4688 7.4375C13.8258 7.4375 11.6875 9.57578 11.6875 12.2188C11.6875 14.8617 13.8258 17 16.4688 17C19.1117 17 21.25 14.8617 21.25 12.2188C21.25 9.57578 19.1117 7.4375 16.4688 7.4375ZM18.5938 12.4279C18.5938 12.6039 18.4477 12.75 18.2717 12.75H16.2596C16.0836 12.75 15.9375 12.6039 15.9375 12.4279V9.88457C15.9375 9.70859 16.0836 9.5625 16.2596 9.5625H16.6779C16.8539 9.5625 17 9.70859 17 9.88457V11.6875H18.2717C18.4477 11.6875 18.5938 11.8336 18.5938 12.0096V12.4279ZM10.625 12.2188C10.625 11.2957 10.8475 10.4225 11.2293 9.64551C10.9637 9.5957 10.6914 9.5625 10.4125 9.5625H9.85801C9.1209 9.90117 8.30078 10.0938 7.4375 10.0938C6.57422 10.0938 5.75742 9.90117 5.01699 9.5625H4.4625C1.99883 9.5625 0 11.5613 0 14.025V15.4062C0 16.2861 0.713867 17 1.59375 17H13.1186C11.6145 15.9408 10.625 14.1943 10.625 12.2188ZM7.4375 8.5C9.78496 8.5 11.6875 6.59746 11.6875 4.25C11.6875 1.90254 9.78496 0 7.4375 0C5.09004 0 3.1875 1.90254 3.1875 4.25C3.1875 6.59746 5.09004 8.5 7.4375 8.5Z" fill="#767676"/>
</svg>
