<svg width="12" height="15" viewBox="0 0 12 15" fill="none" xmlns="http://www.w3.org/2000/svg">
<path d="M5.04697 14.6975C0.790137 8.52639 0 7.89299 0 5.62512C0 2.51848 2.51836 0.00012207 5.625 0.00012207C8.73164 0.00012207 11.25 2.51848 11.25 5.62512C11.25 7.89299 10.4599 8.52639 6.20303 14.6975C5.92383 15.1009 5.32617 15.1009 5.04697 14.6975ZM5.625 7.96887C6.91934 7.96887 7.96875 6.91946 7.96875 5.62512C7.96875 4.33079 6.91934 3.28137 5.625 3.28137C4.33066 3.28137 3.28125 4.33079 3.28125 5.62512C3.28125 6.91946 4.33066 7.96887 5.625 7.96887Z" fill="#767676"/>
</svg>
