<svg width="15" height="13" viewBox="0 0 15 13" fill="none" xmlns="http://www.w3.org/2000/svg">
<path d="M2.8125 5.57155C3.84668 5.57155 4.6875 4.73874 4.6875 3.71441C4.6875 2.69008 3.84668 1.85726 2.8125 1.85726C1.77832 1.85726 0.9375 2.69008 0.9375 3.71441C0.9375 4.73874 1.77832 5.57155 2.8125 5.57155ZM9.375 6.50012C11.1885 6.50012 12.6562 5.04633 12.6562 3.25012C12.6562 1.45392 11.1885 0.00012207 9.375 0.00012207C7.56152 0.00012207 6.09375 1.45392 6.09375 3.25012C6.09375 5.04633 7.56152 6.50012 9.375 6.50012ZM11.625 7.42869H11.3818C10.7725 7.71887 10.0957 7.89298 9.375 7.89298C8.6543 7.89298 7.98047 7.71887 7.36816 7.42869H7.125C5.26172 7.42869 3.75 8.92601 3.75 10.7716V11.6073C3.75 12.3762 4.37988 13.0001 5.15625 13.0001H13.5938C14.3701 13.0001 15 12.3762 15 11.6073V10.7716C15 8.92601 13.4883 7.42869 11.625 7.42869ZM5.07129 7.03985C4.73145 6.70615 4.26562 6.50012 3.75 6.50012H1.875C0.84082 6.50012 0 7.33293 0 8.35726V9.28584C0 9.79945 0.418945 10.2144 0.9375 10.2144H2.86816C3.05273 8.83896 3.89063 7.68115 5.07129 7.03985Z" fill="#767676"/>
</svg>
