<svg width="14" height="14" viewBox="0 0 14 14" fill="none" xmlns="http://www.w3.org/2000/svg">
<path d="M0 11.0825V12.2501C0 13.2154 2.35156 14.0001 5.25 14.0001C8.14844 14.0001 10.5 13.2154 10.5 12.2501V11.0825C9.3707 11.8782 7.30625 12.2501 5.25 12.2501C3.19375 12.2501 1.1293 11.8782 0 11.0825ZM8.75 3.50012C11.6484 3.50012 14 2.71536 14 1.75012C14 0.784888 11.6484 0.00012207 8.75 0.00012207C5.85156 0.00012207 3.5 0.784888 3.5 1.75012C3.5 2.71536 5.85156 3.50012 8.75 3.50012ZM0 8.21418V9.62512C0 10.5904 2.35156 11.3751 5.25 11.3751C8.14844 11.3751 10.5 10.5904 10.5 9.62512V8.21418C9.3707 9.14387 7.30352 9.62512 5.25 9.62512C3.19648 9.62512 1.1293 9.14387 0 8.21418ZM11.375 8.51497C12.9418 8.21145 14 7.64817 14 7.00012V5.83254C13.3656 6.28098 12.4332 6.58723 11.375 6.7759V8.51497ZM5.25 4.37512C2.35156 4.37512 0 5.35403 0 6.56262C0 7.77122 2.35156 8.75012 5.25 8.75012C8.14844 8.75012 10.5 7.77122 10.5 6.56262C10.5 5.35403 8.14844 4.37512 5.25 4.37512ZM11.2465 5.91458C12.8871 5.61926 14 5.03958 14 4.37512V3.20754C13.0293 3.89387 11.3613 4.26301 9.60586 4.35051C10.4125 4.74153 11.0059 5.26653 11.2465 5.91458Z" fill="#767676"/>
</svg>
