<svg width="18" height="18" viewBox="0 0 18 18" fill="none" xmlns="http://www.w3.org/2000/svg">
<path d="M9 0C4.02823 0 0 4.02823 0 9C0 13.9718 4.02823 18 9 18C13.9718 18 18 13.9718 18 9C18 4.02823 13.9718 0 9 0ZM9 3.48387C10.7637 3.48387 12.1935 4.91371 12.1935 6.67742C12.1935 8.44113 10.7637 9.87097 9 9.87097C7.23629 9.87097 5.80645 8.44113 5.80645 6.67742C5.80645 4.91371 7.23629 3.48387 9 3.48387ZM9 15.9677C6.86976 15.9677 4.96089 15.0024 3.68347 13.4927C4.36573 12.2081 5.70121 11.3226 7.25806 11.3226C7.34516 11.3226 7.43226 11.3371 7.51573 11.3625C7.9875 11.5149 8.48105 11.6129 9 11.6129C9.51895 11.6129 10.0161 11.5149 10.4843 11.3625C10.5677 11.3371 10.6548 11.3226 10.7419 11.3226C12.2988 11.3226 13.6343 12.2081 14.3165 13.4927C13.0391 15.0024 11.1302 15.9677 9 15.9677Z" fill="#767676"/>
</svg>
