<svg width="22" height="17" viewBox="0 0 22 17" fill="none" xmlns="http://www.w3.org/2000/svg">
<path d="M20.2727 12.3947C20.3591 11.9266 20.3591 11.4484 20.2727 10.9803L21.1295 10.4855C21.2291 10.4291 21.2722 10.3129 21.239 10.2033C21.0166 9.48613 20.6347 8.83535 20.1366 8.29746C20.0602 8.21445 19.9373 8.19453 19.8377 8.25098L18.981 8.7457C18.619 8.43691 18.2039 8.19785 17.7557 8.03848V7.04902C17.7557 6.93613 17.676 6.83652 17.5664 6.81328C16.8259 6.64727 16.0721 6.65391 15.3681 6.81328C15.2585 6.83652 15.1788 6.93613 15.1788 7.04902V8.03848C14.7305 8.19785 14.3154 8.43691 13.9535 8.7457L13.0967 8.25098C13.0004 8.19453 12.8743 8.21445 12.7979 8.29746C12.2998 8.83535 11.9179 9.48613 11.6954 10.2033C11.6622 10.3129 11.7087 10.4291 11.805 10.4855L12.6617 10.9803C12.5754 11.4484 12.5754 11.9266 12.6617 12.3947L11.805 12.8895C11.7054 12.9459 11.6622 13.0621 11.6954 13.1717C11.9179 13.8889 12.2998 14.5363 12.7979 15.0775C12.8743 15.1605 12.9971 15.1805 13.0967 15.124L13.9535 14.6293C14.3154 14.9381 14.7305 15.1771 15.1788 15.3365V16.326C15.1788 16.4389 15.2585 16.5385 15.3681 16.5617C16.1086 16.7277 16.8624 16.7211 17.5664 16.5617C17.676 16.5385 17.7557 16.4389 17.7557 16.326V15.3365C18.2039 15.1771 18.619 14.9381 18.981 14.6293L19.8377 15.124C19.934 15.1805 20.0602 15.1605 20.1366 15.0775C20.6347 14.5396 21.0166 13.8889 21.239 13.1717C21.2722 13.0621 21.2258 12.9459 21.1295 12.8895L20.2727 12.3947ZM16.4706 13.2979C15.5806 13.2979 14.86 12.574 14.86 11.6875C14.86 10.801 15.5839 10.0771 16.4706 10.0771C17.3572 10.0771 18.0811 10.801 18.0811 11.6875C18.0811 12.574 17.3605 13.2979 16.4706 13.2979ZM7.43831 8.5C9.78603 8.5 11.6888 6.59746 11.6888 4.25C11.6888 1.90254 9.78603 0 7.43831 0C5.0906 0 3.18785 1.90254 3.18785 4.25C3.18785 6.59746 5.0906 8.5 7.43831 8.5ZM14.1195 16.0205C14.0431 15.9807 13.9668 15.9342 13.8937 15.891L13.6314 16.0438C13.4321 16.1566 13.2063 16.2197 12.9805 16.2197C12.6186 16.2197 12.2699 16.067 12.0208 15.8014C11.4132 15.1439 10.9483 14.3438 10.6859 13.4904C10.5033 12.9027 10.749 12.2818 11.2803 11.973L11.5427 11.8203C11.5393 11.734 11.5393 11.6477 11.5427 11.5613L11.2803 11.4086C10.749 11.1031 10.5033 10.4789 10.6859 9.89121C10.7158 9.79492 10.759 9.69863 10.7922 9.60234C10.666 9.59238 10.5431 9.5625 10.4136 9.5625H9.85909C9.1219 9.90117 8.30169 10.0938 7.43831 10.0938C6.57494 10.0938 5.75805 9.90117 5.01754 9.5625H4.46299C1.99905 9.5625 0 11.5613 0 14.025V15.4062C0 16.2861 0.713945 17 1.59392 17H13.2827C13.6181 17 13.9302 16.8937 14.1859 16.7178C14.1461 16.5916 14.1195 16.4621 14.1195 16.326V16.0205Z" fill="#767676"/>
</svg>
