<svg width="20" height="18" viewBox="0 0 20 18" fill="none" xmlns="http://www.w3.org/2000/svg">
<path d="M20 0.84375V5.34305C20 6.0975 19.0986 6.46734 18.5774 5.93965L17.3375 4.68422L8.88194 13.2458C8.5566 13.5752 8.02882 13.5752 7.70347 13.2458L6.91771 12.4502C6.59236 12.1208 6.59236 11.5864 6.91771 11.257L15.3736 2.69578L14.134 1.44035C13.6104 0.910547 13.9812 0 14.7229 0H19.1667C19.6271 0 20 0.377578 20 0.84375ZM14.133 9.51996L13.5774 10.0825C13.4212 10.2407 13.3333 10.4555 13.3333 10.6791V15.75H2.22222V4.5H11.3889C11.6097 4.5 11.8219 4.41105 11.9781 4.25285L12.5337 3.69035C13.0587 3.15879 12.6868 2.25 11.9444 2.25H1.66667C0.746181 2.25 0 3.00551 0 3.9375V16.3125C0 17.2445 0.746181 18 1.66667 18H13.8889C14.8094 18 15.5556 17.2445 15.5556 16.3125V10.1166C15.5556 9.36492 14.658 8.9884 14.133 9.51996Z" fill="#767676"/>
</svg>
