<svg width="14" height="14" viewBox="0 0 14 14" fill="none" xmlns="http://www.w3.org/2000/svg">
<path d="M14.0006 6.89403V1.31262C14.0006 0.587739 13.413 0.00012207 12.6881 0.00012207H7.10669C6.7586 0.00012207 6.42474 0.138481 6.17864 0.384575L0.385049 6.17817C-0.127373 6.69059 -0.127373 7.52184 0.385049 8.03426L5.96646 13.6157C6.47888 14.1284 7.31013 14.1284 7.82255 13.6157L13.6161 7.82207C13.8622 7.57598 14.0006 7.24211 14.0006 6.89403ZM10.9381 1.75012C11.663 1.75012 12.2506 2.33774 12.2506 3.06262C12.2506 3.7875 11.663 4.37512 10.9381 4.37512C10.2132 4.37512 9.6256 3.7875 9.6256 3.06262C9.6256 2.33774 10.2132 1.75012 10.9381 1.75012Z" fill="#767676"/>
</svg>
