<svg width="14" height="14" viewBox="0 0 14 14" fill="none" xmlns="http://www.w3.org/2000/svg">
<path d="M7 0.00012207C3.13306 0.00012207 0 3.13319 0 7.00012C0 10.8671 3.13306 14.0001 7 14.0001C10.8669 14.0001 14 10.8671 14 7.00012C14 3.13319 10.8669 0.00012207 7 0.00012207ZM8.61169 9.88198L6.12218 8.0727C6.03468 8.00778 5.98387 7.90617 5.98387 7.79891V3.04851C5.98387 2.86222 6.13629 2.7098 6.32258 2.7098H7.67742C7.86371 2.7098 8.01613 2.86222 8.01613 3.04851V6.9352L9.80847 8.23923C9.96089 8.34932 9.99194 8.56101 9.88186 8.71343L9.08589 9.80859C8.97581 9.95819 8.76411 9.99206 8.61169 9.88198Z" fill="#767676"/>
</svg>
